<?xml version="1.0" encoding="UTF-8" standalone="no"?>
<svg
   id="Calque_1"
   version="1.1"
   viewBox="0 0 878.41146 234.42051"
   width="878.41144"
   height="234.42052"
   xmlns="http://www.w3.org/2000/svg"
   xmlns:svg="http://www.w3.org/2000/svg">
  <!-- Generator: Adobe Illustrator 30.8.1, SVG Export Plug-In . SVG Version: 2.1.4 Build 1)  -->
  <defs
     id="defs1">
    <style
       id="style1">
      .st0, .st1 {
        isolation: isolate;
      }

      .st1 {
        font-family: ArialMT, Arial;
        font-size: 16.7px;
      }

      .st1, .st2 {
        fill: #121221;
      }

      .st2 {
        font-family: AmaticSC-Bold, 'Amatic SC';
        font-size: 382.6px;
        font-weight: 700;
      }
    </style>
  </defs>
  <g
     id="g2"
     transform="translate(-384.39411,-683.55074)">
    <g
       id="g1"
       transform="translate(-29.989933,-369.78434)"
       style="fill:#121221;fill-opacity:1">
      <path
         d="m 911.78045,1377.452 c 6.51524,-23.6279 35.28595,-28.9977 49.28631,-56.3209 23.795,-46.7905 13.816,-99.5681 -35.76671,-122.3136 -64.4733,-6.147 -130.29827,62.7903 -103.70464,132.5136 l 80.19258,-41.6567 c 8.32732,85.4589 -176.1903,157.1058 -142.32646,-9.6612 20.36381,-99.2341 168.02392,-175.3145 231.67345,-68.4306 33.19092,55.968 2.36462,187.7654 -79.35453,165.8694 z"
         id="path3-8"
         style="fill:#121221;fill-opacity:1;stroke-width:3.47377;stroke-dasharray:none"
         transform="translate(288.5159,-99.72201)" />
      <path
         style="font-weight:800;font-size:320.868px;font-family:'Golden Goose Uppercase';-inkscape-font-specification:'Golden Goose Uppercase Ultra-Bold';stroke-width:1.37928"
         d="m 528.43273,1071.1485 q -2.56694,0 -4.49215,5.1339 l -1.60434,4.4921 q -15.0808,43.3172 -23.74424,69.6284 l -0.32086,0.9626 q -0.32087,1.2835 -0.64174,2.5669 0,1.2835 0.32087,1.6044 1.28347,0.6417 2.88781,0.6417 h 1.28347 53.58496 q 3.20868,0 3.85042,-0.3208 1.9252,-0.9627 0,-4.8131 -5.45476,-14.7599 -13.15559,-35.2955 -7.37997,-20.5355 -14.11819,-38.5041 -2.56695,-6.0965 -3.85042,-6.0965 z m 99.14821,159.7923 q 6.41737,3.8504 8.34257,5.7756 1.92521,1.9252 1.92521,5.4547 0,9.3052 -13.47646,9.3052 h -58.39797 q -7.37997,0 -10.58865,-2.5669 -3.20868,-2.567 -3.20868,-7.38 0,-3.2087 1.60434,-5.1339 1.60434,-2.2461 5.13389,-4.813 4.49215,-2.5669 7.0591,-3.5295 7.05909,-2.567 10.58864,-4.1713 7.0591,-3.5296 5.13389,-8.9843 -1.28347,-3.5296 -2.56694,-7.0591 -3.52955,-11.8721 -7.0591,-19.8938 0,-0.6418 -1.28347,-2.8879 -0.96261,-1.9252 -2.24608,-3.2086 -2.24608,-2.567 -6.09649,-3.5296 l -4.17129,-0.3209 h -50.69714 q -5.77563,0 -8.34257,0.3209 -4.49215,0 -7.37996,1.9252 -0.96261,0.3209 -1.92521,1.9252 l -0.64174,0.9626 q -0.32087,0.3209 -2.24607,5.4548 -0.96261,2.5669 -4.81302,13.7973 -1.60434,4.4922 -3.20868,9.3052 -0.32087,1.6043 -0.96261,3.2087 -1.60434,5.4547 4.81302,8.9843 1.92521,0.9626 3.85042,1.9252 1.92521,0.6417 3.85041,1.2834 l 5.13389,2.2461 q 2.56695,0.9626 4.17129,2.2461 3.52954,2.5669 4.81302,4.813 1.60434,1.9252 1.60434,5.1339 0,0.9626 -0.32087,1.9252 0,0.9626 -0.32087,1.9252 -0.9626,2.8878 -4.17128,4.4922 -2.88782,1.6043 -8.66344,1.6043 h -52.62235 q -5.13389,0 -9.62604,-1.6043 -4.17129,-1.9252 -4.17129,-7.0591 0,-3.5296 2.56695,-6.4174 2.56694,-2.8878 8.9843,-6.7382 9.30517,-5.4548 13.47646,-10.9095 4.49215,-5.7756 8.0217,-16.0434 0.32086,-1.2835 1.60434,-5.4548 l 41.39197,-118.0794 q 6.09649,-18.2895 9.94691,-28.5573 5.13389,-15.0808 9.30517,-20.8564 4.17129,-6.0965 10.58865,-6.0965 5.13388,0 8.9843,5.7757 4.17128,5.4547 9.62604,19.252 l 7.37996,20.5356 46.84673,129.3098 1.92521,5.4548 1.60434,4.1712 q 3.20868,8.0217 6.41736,12.8348 3.52955,4.4921 10.26778,8.6634 z m 46.52574,9.626 q 0,-3.2087 2.56695,-5.7756 2.88781,-2.8878 9.94691,-6.4174 l 7.37996,-3.8504 q 4.17128,-1.9252 5.77562,-4.813 1.92521,-3.2087 1.92521,-8.6635 v -38.825 q 0,-31.445 0,-62.2484 0.32087,-31.1242 0,-53.2641 0,-3.5295 -2.56694,-4.813 -2.56695,-1.6043 -6.73823,-1.6043 -16.68514,0 -24.38597,1.2834 -7.37996,0.9627 -13.79732,6.4174 -6.0965,5.4548 -13.15559,18.2895 -4.17129,7.7008 -7.37997,11.5512 -3.20868,3.8504 -6.09649,3.8504 -5.13389,0 -7.70083,-3.2086 -2.24608,-3.5296 -0.96261,-9.9469 l 7.70084,-41.7129 q 1.28347,-5.7756 3.85041,-7.7008 2.88782,-2.2461 8.66344,-2.2461 h 154.01665 q 5.77562,0 8.34256,2.2461 2.88782,1.9252 4.17129,7.7008 l 7.70083,41.7129 q 0.9626,5.7756 -1.60434,9.626 -2.24608,3.5295 -7.0591,3.5295 -3.20868,0 -6.09649,-3.5295 -2.88781,-3.8504 -7.37996,-11.8721 -7.0591,-12.5139 -14.43906,-17.9686 -7.0591,-5.7756 -15.0808,-6.7383 -7.70083,-1.2834 -23.1025,-1.2834 -4.17128,0 -6.73823,1.6043 -2.56694,1.6044 -2.56694,5.4548 v 153.6957 q 0,5.4548 1.60434,8.6635 1.92521,2.8878 6.09649,4.813 l 7.37997,3.8504 q 7.05909,3.5296 9.62604,6.4174 2.88781,2.5669 2.88781,5.7756 0,5.4548 -3.20868,8.3426 -3.20868,2.5669 -10.26778,2.5669 h -55.83103 q -13.47646,0 -13.47646,-10.9095 z m 171.02243,10.9095 q -13.47646,0 -13.47646,-10.9095 0.32087,-3.2087 2.88782,-5.4548 2.56694,-2.5669 9.62604,-6.7382 l 7.37996,-3.8504 q 4.17129,-2.2461 5.77563,-5.1339 1.9252,-2.8878 1.9252,-8.3426 v -144.0697 q 0,-5.4547 -1.9252,-8.3426 -1.60434,-3.2086 -5.77563,-5.1338 l -7.37996,-3.8505 q -7.0591,-3.5295 -9.94691,-6.0965 -2.56695,-2.8878 -2.56695,-6.0964 0,-10.9096 13.47646,-10.9096 h 32.40767 q 2.88781,0 5.13389,1.9253 2.56694,1.6043 4.17128,4.4921 l 59.03972,104.9238 q 0.9626,1.6044 1.92521,3.5296 1.28347,2.5669 2.56694,4.813 1.28347,1.9252 2.24608,1.9252 1.28347,0 3.20868,-2.2461 1.9252,-2.5669 3.52954,-6.0964 0.96261,-1.6044 1.60434,-2.8879 l 50.69714,-103.9612 q 1.2835,-3.2087 3.8504,-4.813 2.567,-1.6044 5.4548,-1.6044 h 37.8624 q 7.0591,0 10.2678,2.8879 3.2087,2.5669 3.2087,8.0217 0,3.2086 -2.8878,6.0964 -2.567,2.567 -9.6261,6.0965 l -7.38,3.8505 q -4.1712,1.9252 -6.0964,5.1338 -1.6044,2.8879 -1.6044,8.3426 v 144.0697 q 0,5.4548 1.6044,8.3426 1.9252,2.8878 6.0964,5.1339 l 7.38,3.8504 q 7.0591,4.1713 9.6261,6.7382 2.5669,2.2461 2.8878,5.4548 0,5.4548 -3.2087,8.3426 -3.2087,2.5669 -10.2678,2.5669 h -55.831 q -13.47648,0 -13.47648,-10.9095 0.32086,-3.2087 2.88781,-5.4548 2.56694,-2.5669 9.62607,-6.7382 l 7.3799,-3.8504 q 4.1713,-2.2461 5.7757,-5.1339 1.9252,-2.8878 1.9252,-8.3426 v -115.5124 q 0,-10.9095 -2.567,-10.9095 -2.2461,0 -4.1713,1.9252 -1.6043,1.9252 -4.1712,7.3799 l -40.42942,78.2918 q -3.20868,6.7382 -7.05909,10.2678 -3.85042,3.5295 -8.66344,3.5295 -4.17128,0 -7.70083,-2.8878 -3.52955,-2.8878 -8.66344,-12.193 L 890.3715,1094.251 q -1.60434,-2.8878 -3.85042,-6.0965 -2.24607,-3.5295 -3.20868,-3.5295 -1.9252,0 -1.9252,9.626 v 1.2835 115.5124 q 0,5.4548 1.60434,8.3426 1.9252,2.8878 6.09649,5.1339 l 7.37996,3.8504 q 7.0591,4.1713 9.62604,6.7382 2.56695,2.2461 2.88782,5.4548 0,5.4548 -3.20868,8.3426 -3.20868,2.5669 -10.26778,2.5669 z"
         id="text4"
         class="st2"
         transform="scale(0.9718275,1.0289892)"
         aria-label="ATM" />
    </g>
  </g>
</svg>
